<?xml version="1.0" standalone="no"?>
<!DOCTYPE svg PUBLIC "-//W3C//DTD SVG 20010904//EN"
 "http://www.w3.org/TR/2001/REC-SVG-20010904/DTD/svg10.dtd">
<svg version="1.0" xmlns="http://www.w3.org/2000/svg"
 width="800.000000pt" height="800.000000pt" viewBox="0 0 800.000000 800.000000"
 preserveAspectRatio="xMidYMid meet">
<metadata>
Created by potrace 1.11, written by Peter Selinger 2001-2013
</metadata>
<g transform="translate(0.000000,800.000000) scale(0.100000,-0.100000)"
fill="#000000" stroke="none">
<path d="M3575 7802 c6 -5 45 -21 88 -37 43 -15 100 -39 126 -54 96 -53 133
-100 58 -73 -232 82 -587 66 -867 -40 -219 -83 -460 -218 -428 -240 9 -6 6 -7
-9 -3 -17 5 -40 -13 -119 -89 -54 -52 -95 -98 -92 -102 4 -3 19 8 33 25 15 17
33 31 41 31 8 0 -4 -16 -25 -35 -22 -20 -45 -34 -51 -33 -7 2 -16 -9 -21 -24
-4 -16 -5 -28 -2 -28 3 0 26 17 52 38 75 62 172 127 238 161 69 34 73 35 73
22 0 -6 -28 -30 -62 -55 -116 -82 -282 -266 -357 -394 -33 -56 -37 -67 -21
-57 6 3 7 -1 4 -10 -4 -9 -9 -13 -12 -11 -6 6 -31 -24 -32 -38 0 -6 7 -1 15
10 12 15 14 16 15 3 0 -9 -3 -19 -7 -23 -5 -4 -8 -11 -9 -14 0 -4 -6 -18 -12
-32 l-11 -25 2 27 c1 15 5 24 11 21 5 -4 6 -1 1 6 -4 7 -11 9 -15 4 -13 -14
-80 -197 -80 -217 0 -34 15 -4 19 37 1 5 5 6 10 3 5 -4 7 4 4 16 -4 19 -3 20
7 8 9 -12 11 -10 6 10 -3 14 -1 32 4 40 8 12 10 12 10 1 0 -11 3 -11 17 0 16
13 16 13 0 -11 -9 -13 -17 -34 -17 -46 0 -11 -9 -29 -20 -39 -11 -10 -22 -26
-25 -36 -4 -11 -10 -17 -15 -14 -8 5 -13 -5 -26 -57 -4 -19 0 -17 25 12 16 19
32 33 35 30 3 -3 0 -25 -5 -49 -5 -25 -7 -51 -5 -58 3 -8 2 -12 -3 -9 -4 3
-15 -29 -22 -72 -30 -166 -6 -622 37 -706 9 -17 40 -107 70 -199 30 -94 68
-193 88 -225 18 -31 51 -91 71 -132 20 -41 52 -100 71 -131 41 -68 42 -82 9
-97 -18 -8 -25 -19 -25 -40 0 -34 16 -52 47 -52 17 0 24 -7 29 -27 34 -151 64
-219 142 -326 21 -29 60 -104 86 -167 76 -181 221 -460 285 -546 54 -73 190
-211 291 -294 24 -19 77 -55 119 -79 42 -25 81 -50 86 -56 6 -7 37 -27 70 -45
33 -17 65 -36 70 -40 36 -29 215 -113 285 -133 140 -41 304 -26 434 40 27 14
56 32 64 40 8 8 38 32 66 52 28 21 86 73 130 115 76 74 78 76 72 44 -3 -18 -6
-143 -7 -277 l-1 -245 -30 -55 c-77 -142 -229 -314 -353 -398 -33 -23 -78 -57
-100 -77 -22 -20 -44 -36 -48 -36 -40 0 -315 180 -396 259 -78 77 -152 168
-189 232 -29 53 -30 56 -35 239 -5 175 -12 249 -24 260 -6 5 4 -114 13 -177 4
-26 0 -38 -18 -55 -13 -13 -16 -17 -6 -9 17 13 18 11 19 -30 0 -24 2 -64 3
-89 l3 -45 -11 37 c-16 52 -30 61 -22 13 7 -41 76 -193 99 -217 7 -7 28 -33
47 -58 39 -50 102 -113 170 -168 25 -20 47 -39 50 -42 34 -34 279 -172 314
-177 11 -2 22 -6 25 -9 3 -4 -23 -3 -59 1 -169 20 -318 3 -367 -42 -10 -10
-13 -14 -6 -9 34 23 17 -8 -46 -85 -110 -135 -199 -188 -313 -189 l-68 0 0 73
c-1 71 -16 195 -45 352 -20 112 -20 321 1 381 8 25 13 48 10 52 -3 3 -6 0 -6
-6 0 -17 -114 -94 -235 -158 -161 -86 -307 -149 -640 -279 -349 -137 -439
-196 -547 -357 -68 -101 -139 -230 -143 -261 -1 -12 -23 -78 -48 -147 -24 -69
-48 -134 -52 -145 -20 -57 17 19 52 104 21 53 41 98 46 99 4 2 7 15 7 28 0 15
4 23 11 19 6 -4 10 -1 8 6 -3 25 1 40 9 35 4 -2 9 5 9 17 1 12 -2 24 -7 27 -5
3 0 19 10 35 11 17 20 25 20 18 0 -6 -4 -15 -10 -18 -5 -3 -10 -10 -10 -15 0
-10 27 -7 37 5 4 4 3 5 -3 2 -18 -10 -11 42 11 86 10 20 22 37 27 37 4 0 8 8
8 18 1 15 2 16 13 1 15 -20 34 -4 29 26 -3 17 -1 18 8 5 10 -13 11 -13 7 0 -2
8 -10 14 -16 13 -20 -5 -11 12 34 64 32 36 51 50 63 47 15 -5 15 -4 2 6 -12 9
-9 10 15 5 26 -6 28 -5 12 7 -16 12 -15 15 15 39 39 30 113 61 123 51 5 -4 5
-2 2 4 -7 11 4 17 88 52 96 39 120 47 140 44 17 -2 17 -1 5 7 -13 9 -13 11 3
11 9 0 25 4 35 10 9 5 76 32 147 60 72 27 138 54 147 60 24 13 31 13 23 -2 -4
-7 -1 -6 7 2 7 8 24 14 38 13 14 -1 19 0 12 3 -16 7 58 46 75 39 7 -2 13 3 13
11 0 11 6 14 23 9 18 -5 19 -4 7 5 -12 10 -11 11 8 7 13 -3 22 -3 19 0 -9 9
83 54 95 47 7 -4 8 -2 4 4 -5 8 2 12 20 12 27 0 27 -1 8 -15 -10 -8 -14 -15
-7 -15 6 0 15 5 18 10 4 6 10 8 14 6 3 -3 7 4 7 14 0 11 -6 16 -16 13 -13 -4
50 37 112 73 10 6 29 21 43 34 l24 22 -13 -42 c-7 -23 -19 -46 -27 -51 -11 -7
-10 -9 6 -10 11 0 15 -3 10 -5 -21 -9 -5 -175 45 -454 10 -58 21 -136 24 -173
5 -61 3 -68 -11 -63 -14 6 -14 4 -1 -16 11 -17 26 -23 64 -25 27 -2 54 -5 61
-7 15 -6 87 14 79 21 -3 3 17 17 44 30 44 22 185 138 185 153 0 16 32 36 49
32 19 -5 19 -6 1 -12 -17 -6 -16 -8 7 -12 17 -3 25 -1 21 5 -4 7 0 7 13 2 10
-4 34 -10 52 -13 24 -3 32 -9 32 -24 0 -18 2 -19 17 -7 12 10 51 14 147 14 72
0 163 6 201 14 91 17 211 59 254 88 18 13 37 23 40 23 14 0 63 -171 66 -225 2
-55 9 -74 21 -62 4 3 1 20 -5 38 -6 18 -9 34 -7 37 3 2 10 -13 16 -35 15 -49
60 -115 87 -127 20 -10 20 -12 -23 -74 -25 -35 -49 -75 -54 -88 -6 -14 -14
-22 -20 -19 -6 3 -7 -1 -4 -9 3 -9 2 -16 -3 -16 -5 0 -10 -6 -10 -12 -1 -23
-40 -87 -48 -80 -5 4 -5 1 -1 -6 4 -7 -2 -34 -15 -60 -27 -58 -59 -140 -66
-169 -3 -13 -10 -20 -16 -16 -6 4 -8 0 -4 -10 3 -9 -1 -47 -9 -84 -9 -37 -18
-79 -21 -93 -2 -14 -8 -34 -13 -45 -5 -11 -11 -36 -14 -55 -3 -19 -11 -64 -17
-100 -16 -101 -17 -108 -28 -230 -6 -63 -13 -137 -16 -163 -4 -33 -2 -47 5
-42 5 3 10 25 10 48 0 23 7 87 16 142 8 55 18 119 21 143 3 23 9 42 13 42 5 0
6 8 3 19 -8 33 51 298 94 416 47 132 50 138 56 124 4 -8 3 -1 0 15 -4 19 -2
27 5 22 6 -4 8 2 4 16 -4 16 -2 19 8 13 8 -5 11 -4 7 2 -8 13 59 151 117 243
23 36 46 73 51 83 8 15 24 19 90 20 90 2 162 31 197 78 19 25 19 26 -10 105
-83 225 -104 365 -77 527 10 59 15 120 13 136 -2 17 -1 28 4 25 10 -7 10 -7
-6 47 l-14 46 73 -31 c40 -17 71 -34 69 -38 -3 -4 4 -12 15 -17 29 -16 38 -13
15 4 -17 13 -16 14 14 4 17 -6 35 -15 38 -20 3 -5 12 -9 21 -9 9 0 28 -10 41
-22 14 -13 22 -17 17 -9 -6 10 -2 12 16 6 34 -10 51 -29 19 -20 -20 5 -22 4
-10 -5 13 -10 12 -11 -5 -7 -15 3 -20 -1 -20 -18 0 -18 5 -22 23 -20 12 1 26
6 30 10 4 4 -4 4 -18 1 l-25 -7 25 20 c28 23 38 25 60 11 13 -9 13 -10 0 -11
-8 -1 -19 -1 -25 1 -5 1 -5 -4 1 -10 9 -9 17 -9 34 0 12 7 25 8 29 4 3 -5 15
-10 26 -12 11 -2 30 -10 43 -18 12 -8 28 -12 35 -7 7 4 7 0 -2 -10 -12 -16
-12 -17 10 -9 13 5 30 5 39 1 35 -20 80 -35 115 -38 15 -1 17 -3 7 -10 -11 -7
-10 -10 3 -15 23 -8 27 -8 20 4 -3 5 -4 10 -2 10 11 0 107 -48 124 -61 11 -9
14 -10 9 -1 -4 6 -4 12 -1 12 15 0 65 -32 75 -47 9 -14 10 -14 7 -2 -4 13 5
12 61 -8 84 -29 132 -38 132 -23 0 8 6 8 20 0 11 -6 20 -7 20 -3 1 4 8 -4 16
-19 8 -16 20 -28 26 -28 6 0 3 9 -7 20 -10 11 -16 20 -13 20 13 0 159 -64 218
-96 36 -19 54 -26 40 -15 -81 65 -279 141 -545 209 -176 46 -457 150 -748 278
l-178 77 -25 50 c-35 71 -97 141 -170 193 l-64 46 0 170 0 170 40 48 c71 85
42 67 -47 -30 -133 -144 -180 -186 -283 -254 -135 -89 -141 -91 -315 -91 -144
0 -154 2 -237 32 -100 36 -161 68 -373 196 -186 112 -246 157 -359 272 -110
111 -171 203 -281 423 -74 149 -155 325 -155 338 0 3 12 -3 27 -13 14 -9 31
-18 37 -20 6 -1 38 -12 71 -24 86 -31 240 -37 353 -14 94 19 231 68 274 97 14
10 30 18 35 18 5 0 33 24 62 53 57 56 111 140 131 203 7 21 16 44 20 49 14 19
24 100 25 200 3 165 0 155 38 155 31 0 36 -5 62 -57 16 -32 34 -76 41 -98 9
-28 13 -33 13 -17 1 13 -15 57 -34 98 -37 82 -38 80 36 87 43 4 48 2 73 -29
14 -19 26 -46 26 -62 0 -42 43 -154 89 -231 72 -121 162 -195 287 -236 113
-37 203 -48 329 -42 195 10 327 67 396 169 55 81 96 166 114 235 l15 58 -6
-90 c-2 -49 -9 -117 -14 -150 -8 -55 -53 -333 -64 -396 -5 -24 1 -21 49 28 30
30 60 64 66 76 9 19 7 18 -13 -4 -12 -14 -36 -34 -51 -43 l-29 -18 6 29 c3 15
10 64 16 108 6 44 20 123 31 175 21 97 28 188 30 365 1 55 3 94 6 88 9 -25 33
15 33 56 0 33 5 43 30 61 33 24 44 21 68 -20 l17 -27 2 61 c1 34 9 84 18 111
9 28 20 79 25 115 8 64 35 176 65 275 9 29 20 125 26 235 5 102 14 219 19 260
5 41 8 154 7 250 -2 168 -3 179 -35 278 -18 56 -37 100 -42 97 -6 -3 -7 1 -4
9 16 41 -135 274 -247 383 -84 82 -328 236 -476 301 -146 64 -203 78 -335 81
l-80 2 -137 79 c-135 77 -237 120 -285 120 -13 0 -52 9 -87 19 -99 30 -272 59
-254 43z m945 -352 c0 -5 -6 -10 -14 -10 -8 0 -18 5 -21 10 -3 6 3 10 14 10
12 0 21 -4 21 -10z m-1995 -130 c-10 -11 -23 -20 -28 -20 -6 0 -2 9 8 20 10
11 23 20 28 20 6 0 2 -9 -8 -20z m-41 -41 c-3 -5 -10 -7 -15 -3 -5 3 -7 10 -3
15 3 5 10 7 15 3 5 -3 7 -10 3 -15z m-24 -13 c0 -2 -12 -11 -27 -20 l-28 -17
24 20 c23 21 31 25 31 17z m0 -31 c-7 -8 -17 -15 -23 -15 -6 0 -2 7 9 15 25
19 30 19 14 0z m1188 -373 c3 -17 -2 -22 -17 -22 -22 0 -25 8 -15 35 9 22 28
14 32 -13z m1300 -8 c2 -11 -4 -26 -12 -33 -12 -10 -17 -9 -25 8 -6 11 -8 27
-5 36 9 22 38 14 42 -11z m62 12 c0 -8 -4 -18 -10 -21 -5 -3 -10 3 -10 14 0
12 5 21 10 21 6 0 10 -6 10 -14z m-1281 -17 c-16 -10 -23 -4 -14 10 3 6 11 8
17 5 6 -4 5 -9 -3 -15z m1306 12 c3 -5 1 -12 -5 -16 -5 -3 -10 1 -10 9 0 18 6
21 15 7z m-2025 -67 c0 -8 -4 -12 -10 -9 -5 3 -10 10 -10 16 0 5 5 9 10 9 6 0
10 -7 10 -16z m2411 -194 c5 0 9 -9 9 -20 0 -14 -5 -18 -17 -13 -19 7 -33 22
-33 37 0 4 7 5 16 2 9 -3 20 -6 25 -6z m-2917 -17 c4 -5 12 -8 17 -8 5 0 9 -4
8 -10 0 -5 -6 -9 -14 -7 -7 1 -15 -4 -19 -13 -9 -23 -26 -18 -26 8 0 33 17 47
34 30z m2026 -297 c60 -15 110 -36 110 -45 0 -4 12 -8 27 -9 46 -4 170 -73
263 -146 103 -82 108 -92 125 -270 4 -38 13 -89 20 -115 8 -25 19 -75 26 -111
6 -36 15 -69 19 -75 28 -42 80 -236 86 -325 6 -100 -13 -103 -58 -9 -28 60
-98 147 -132 166 -44 23 -236 53 -346 53 -231 0 -424 -69 -562 -203 -75 -72
-91 -96 -111 -163 -13 -46 -15 -47 -26 -26 -10 19 -20 22 -68 22 -74 0 -185
-20 -199 -36 -8 -10 -16 -5 -36 20 -53 67 -232 166 -333 186 -132 24 -220 30
-330 20 -194 -19 -364 -76 -411 -138 -15 -20 -31 -39 -34 -42 -7 -5 -40 -76
-57 -120 -18 -45 -37 149 -24 245 5 44 13 114 16 155 17 196 87 444 156 557
24 38 204 190 306 256 65 43 183 95 183 80 0 -3 -36 -67 -80 -142 -44 -75 -80
-140 -80 -144 0 -4 27 24 61 63 61 71 161 161 202 180 17 9 15 5 -8 -17 -39
-38 -125 -138 -125 -147 0 -4 7 0 16 8 24 25 126 100 164 123 19 11 58 33 85
49 28 16 59 29 70 30 171 15 249 16 284 4 30 -10 63 -10 157 -1 139 14 285 41
279 52 -3 4 14 14 37 23 51 19 239 14 328 -8z m-2230 -772 c0 -8 -5 -12 -10
-9 -6 4 -8 11 -5 16 9 14 15 11 15 -7z m2899 -129 c0 -5 -4 -3 -9 5 -5 8 -9
22 -9 30 0 16 17 -16 18 -35z m-2731 -95 c-1 -45 -6 -74 -15 -81 -7 -6 -13
-19 -12 -28 0 -12 2 -11 9 4 8 18 9 17 9 -8 1 -16 -4 -38 -10 -49 -8 -15 -8
-19 0 -13 8 5 10 -2 5 -22 -4 -15 -8 -63 -8 -106 -1 -65 -3 -74 -14 -60 -7 10
-10 23 -8 29 3 7 -4 20 -14 29 -30 27 -44 70 -30 94 6 12 9 25 6 30 -3 4 1 8
9 8 19 0 19 -2 -1 -33 -14 -20 -15 -27 -4 -37 10 -9 11 -9 6 1 -4 7 0 24 8 37
15 23 15 27 1 49 -11 16 -13 26 -5 31 5 3 15 -4 20 -17 9 -21 10 -20 6 7 -3
17 -1 48 3 70 5 22 10 31 11 20 3 -28 17 29 19 78 0 20 3 37 6 37 2 0 4 -32 3
-70z m2382 39 c151 -20 221 -81 275 -239 36 -104 35 -238 -4 -368 -28 -92
-119 -203 -197 -237 -148 -65 -369 -73 -539 -19 -170 53 -319 254 -332 446 -8
105 8 157 64 213 82 83 238 175 333 195 143 29 229 31 400 9z m-1510 -194
c156 -57 277 -134 303 -192 42 -94 43 -218 2 -339 -33 -100 -82 -172 -161
-239 -53 -45 -80 -59 -157 -83 -169 -54 -317 -62 -469 -27 -67 15 -101 38
-158 103 -46 52 -54 68 -111 226 -33 94 -39 121 -39 192 0 104 26 189 75 250
42 51 81 73 180 103 115 34 172 40 320 36 122 -3 150 -7 215 -30z m1877 -147
c-3 -7 -5 -2 -5 12 0 14 2 19 5 13 2 -7 2 -19 0 -25z m-368 -2120 c101 -101
140 -230 120 -391 -8 -67 -77 -364 -96 -415 -6 -14 -4 -15 9 -5 8 7 25 52 38
100 l23 88 23 -110 c22 -104 62 -230 91 -285 20 -40 17 -46 -49 -80 -103 -53
-213 -44 -275 22 -13 13 -44 90 -73 178 -57 172 -69 195 -122 238 -21 16 -35
32 -32 34 2 3 -19 8 -47 12 -32 4 -56 3 -62 -3 -8 -8 -3 -11 16 -11 44 0 31
-15 -35 -43 -85 -35 -127 -41 -168 -25 l-34 14 47 28 c26 15 45 31 42 37 -4 5
-1 9 5 9 18 0 153 107 205 162 126 136 179 212 241 342 38 82 66 159 51 146
-3 -3 -17 -25 -31 -50 l-26 -45 0 77 0 78 48 -30 c27 -16 68 -49 91 -72z
m1222 -580 c22 -6 39 -15 39 -19 0 -4 -15 -2 -32 5 -18 7 -40 16 -48 19 -28
10 3 7 41 -5z m-1615 -83 c-11 -8 -25 -15 -30 -15 -6 1 0 7 14 15 32 19 40 18
16 0z m84 -41 c0 -8 5 -14 11 -14 6 0 4 -7 -5 -15 -18 -18 -29 -19 -24 -3 5
14 -15 38 -31 38 -13 0 -14 -10 -1 -30 5 -9 5 -19 -2 -27 -8 -11 -7 -12 8 -7
17 6 17 5 -1 -8 -43 -32 -55 -30 -55 7 0 19 -4 35 -10 35 -5 0 -10 -17 -10
-39 0 -38 0 -38 -57 -54 -32 -9 -87 -19 -122 -22 -35 -3 -68 -8 -72 -11 -7 -4
-1 86 6 94 2 2 19 5 37 5 18 1 36 6 40 11 4 6 38 10 76 10 39 1 66 4 60 7 -5
3 5 9 22 13 18 3 36 3 41 0 5 -3 9 -1 9 5 0 12 51 30 68 23 6 -2 12 -10 12
-18z m-540 -31 c0 10 85 -14 92 -26 6 -9 8 -9 8 1 0 6 11 12 23 12 21 0 24 -4
21 -37 -2 -21 -3 -44 -3 -52 -1 -9 -11 -12 -35 -9 -20 2 -32 0 -29 -6 4 -5 -4
-7 -18 -3 -13 4 -41 7 -63 7 l-39 0 8 38 c4 20 8 49 8 65 0 22 3 25 13 16 8
-6 14 -9 14 -6z m-50 -20 c-4 -16 -11 -41 -14 -56 -6 -26 -9 -27 -48 -23 -43
6 -64 16 -31 16 11 0 20 6 20 13 0 6 4 20 8 31 6 14 4 17 -10 15 -10 -2 -19
-13 -21 -23 -2 -17 -20 -36 -34 -36 -3 0 -12 5 -20 10 -12 7 -11 13 9 34 22
24 76 42 128 45 19 1 21 -2 13 -26z m-2060 -255 c0 -18 -2 -20 -9 -8 -6 8 -7
18 -5 22 9 14 14 9 14 -14z m1607 -44 c-3 -3 -12 -4 -19 -1 -8 3 -5 6 6 6 11
1 17 -2 13 -5z"/>
<path d="M4620 5600 c-47 -10 -103 -24 -125 -32 -22 -9 -68 -25 -102 -37 -79
-28 -195 -85 -222 -108 -12 -10 -21 -25 -21 -34 0 -9 -7 -36 -15 -59 -8 -24
-14 -44 -12 -46 2 -2 59 17 117 39 137 51 418 127 533 143 86 12 126 13 194 5
48 -6 88 -9 90 -7 4 3 -21 21 -154 112 -30 20 -132 45 -179 43 -10 0 -57 -9
-104 -19z m-358 -157 c-6 -2 -9 -10 -5 -16 4 -6 1 -8 -8 -5 -8 3 -21 -2 -29
-10 -13 -14 -12 -15 3 -9 9 3 19 1 23 -5 4 -6 3 -8 -4 -4 -6 3 -12 -3 -14 -15
-4 -25 -51 -64 -66 -55 -32 19 52 126 98 125 10 0 11 -2 2 -6z"/>
<path d="M4180 5360 c0 -5 7 -10 16 -10 8 0 12 5 9 10 -3 6 -10 10 -16 10 -5
0 -9 -4 -9 -10z"/>
<path d="M2955 5421 c-49 -12 -152 -77 -253 -158 -95 -77 -121 -104 -82 -83
33 18 158 45 295 66 131 19 291 20 470 3 61 -6 126 -12 145 -14 19 -2 50 -7
69 -11 39 -8 39 -7 -14 68 -55 78 -91 91 -335 123 -121 16 -244 18 -295 6z
m564 -80 c7 -5 11 -14 7 -20 -4 -7 -1 -9 7 -5 10 3 21 -6 31 -27 9 -18 16 -34
16 -36 0 -7 -33 -2 -52 8 -21 11 -21 12 -2 26 18 15 18 15 -3 8 -21 -6 -28 2
-20 21 1 3 -9 12 -23 19 l-25 14 25 0 c14 1 31 -3 39 -8z"/>
<path d="M3530 5270 c8 -5 20 -10 25 -10 6 0 3 5 -5 10 -8 5 -19 10 -25 10 -5
0 -3 -5 5 -10z"/>
<path d="M3730 5060 c12 -16 26 -30 31 -30 5 0 -3 14 -18 30 -14 17 -28 30
-30 30 -3 0 5 -13 17 -30z"/>
<path d="M4420 5159 c-77 -15 -91 -19 -85 -29 3 -5 -8 -16 -25 -25 -16 -8 -30
-18 -30 -20 0 -3 27 8 60 25 33 17 95 36 137 44 65 12 70 14 33 14 -25 0 -65
-4 -90 -9z"/>
<path d="M4544 5128 c-188 -27 -286 -98 -329 -237 -6 -19 5 -12 46 30 62 62
110 91 116 72 3 -7 11 -13 19 -13 20 0 17 -24 -6 -45 -23 -21 -26 -52 -8 -90
9 -21 17 -25 35 -20 24 6 30 -4 13 -21 -5 -5 -6 -15 0 -23 6 -11 35 -15 114
-15 58 -1 106 2 106 7 0 5 11 7 25 5 13 -3 22 -2 20 2 -3 4 6 11 20 14 14 4
25 11 25 17 0 6 -9 8 -20 4 -22 -7 -26 5 -9 22 6 6 13 38 16 71 5 51 2 67 -16
98 -12 20 -20 38 -19 40 2 1 37 -4 77 -11 41 -8 89 -16 108 -17 26 -2 32 -6
27 -18 -4 -8 -9 -25 -11 -37 -3 -12 -11 -28 -19 -34 -8 -6 -14 -16 -14 -22 0
-15 57 42 81 80 13 20 33 36 51 41 29 7 26 9 -56 41 -48 19 -106 38 -129 43
-72 15 -211 23 -263 16z m-84 -167 c0 -6 -4 -13 -10 -16 -5 -3 -10 1 -10 9 0
9 5 16 10 16 6 0 10 -4 10 -9z m234 -79 c-5 -14 -8 -13 -14 8 -3 14 -2 33 4
43 10 16 11 15 14 -8 2 -15 0 -34 -4 -43z m-237 -44 c-3 -8 -6 -5 -6 6 -1 11
2 17 5 13 3 -3 4 -12 1 -19z m123 2 c-20 -13 -33 -13 -25 0 3 6 14 10 23 10
15 0 15 -2 2 -10z m24 -25 c-4 -8 -11 -12 -16 -9 -6 4 -5 10 3 15 19 12 19 11
13 -6z m-80 -10 c3 -8 1 -15 -3 -15 -5 0 -11 7 -15 15 -3 8 -1 15 3 15 5 0 11
-7 15 -15z m26 4 c0 -5 5 -7 10 -4 6 3 10 1 10 -4 0 -16 -16 -13 -30 4 -9 10
-9 15 -1 15 6 0 11 -5 11 -11z"/>
<path d="M4245 5109 c-22 -10 -29 -16 -16 -13 37 10 88 33 71 33 -8 0 -33 -9
-55 -20z"/>
<path d="M3243 5043 c4 -6 -22 -15 -64 -22 -95 -18 -82 -24 19 -9 71 10 90 9
147 -7 93 -25 91 -13 -2 15 -43 13 -84 25 -92 28 -8 3 -12 1 -8 -5z"/>
<path d="M3065 4990 c-8 -13 5 -13 25 0 13 8 13 10 -2 10 -9 0 -20 -4 -23 -10z"/>
<path d="M3151 4963 c-101 -19 -240 -94 -361 -194 -24 -20 -24 -21 -3 -16 13
3 26 1 29 -5 9 -14 86 -68 97 -68 6 0 -2 13 -17 29 -45 47 -34 69 57 107 43
18 92 36 108 39 16 4 29 11 29 16 0 6 4 8 10 4 5 -3 7 -12 3 -20 -4 -11 2 -15
21 -15 15 0 29 -7 32 -15 8 -21 -14 -45 -41 -45 -19 0 -22 -4 -17 -22 7 -31
50 -98 61 -98 5 0 17 8 27 17 17 17 17 16 10 -12 -4 -17 -10 -33 -14 -37 -7
-6 -72 2 -123 16 -19 6 -26 4 -26 -7 0 -9 6 -13 15 -9 9 3 13 1 10 -4 -3 -5
19 -10 50 -12 31 -2 63 -9 71 -15 10 -8 13 -8 8 -1 -5 8 10 11 48 10 30 -1 55
1 55 5 0 4 18 9 40 13 74 12 104 33 128 92 12 30 22 75 22 99 0 25 5 45 10 45
13 0 86 -46 95 -60 14 -22 23 -8 15 23 -11 37 -55 78 -116 106 -65 31 -250 49
-333 34z m39 -163 c0 -5 -4 -10 -10 -10 -5 0 -10 5 -10 10 0 6 5 10 10 10 6 0
10 -4 10 -10z m260 -42 c0 -7 -4 -19 -9 -26 -6 -11 -9 -9 -14 7 -2 11 -2 22 1
25 10 10 22 6 22 -6z m-226 -51 c4 -19 3 -26 -4 -22 -5 3 -10 18 -10 32 0 32
5 28 14 -10z m144 -17 c8 -13 8 -20 1 -20 -5 0 -8 -4 -5 -8 2 -4 -5 -9 -16 -9
-20 -2 -20 -1 -2 13 19 15 19 15 0 10 -16 -6 -17 -4 -6 9 15 18 -1 20 -18 3
-8 -8 -12 -9 -12 -1 0 11 15 21 35 22 6 1 16 -8 23 -19z m-68 -14 l23 -25 -27
-7 c-15 -3 -30 -4 -33 0 -4 3 1 6 10 6 9 0 19 5 23 12 5 8 2 9 -9 5 -10 -3
-17 -2 -17 3 0 18 -20 10 -21 -7 0 -12 -2 -13 -6 -5 -5 13 13 42 26 42 4 0 18
-11 31 -24z"/>
<path d="M3128 4593 c7 -3 16 -2 19 1 4 3 -2 6 -13 5 -11 0 -14 -3 -6 -6z"/>
<path d="M4304 2095 c1 -19 4 -35 8 -35 5 0 8 11 8 25 0 14 0 28 1 32 0 4 -4
9 -8 10 -5 2 -9 -12 -9 -32z"/>
<path d="M4270 2100 c0 -5 5 -10 11 -10 5 0 7 5 4 10 -3 6 -8 10 -11 10 -2 0
-4 -4 -4 -10z"/>
<path d="M4380 2106 c0 -2 7 -7 16 -10 8 -3 12 -2 9 4 -6 10 -25 14 -25 6z"/>
<path d="M4058 2103 c7 -3 16 -2 19 1 4 3 -2 6 -13 5 -11 0 -14 -3 -6 -6z"/>
<path d="M4008 2093 c7 -3 16 -2 19 1 4 3 -2 6 -13 5 -11 0 -14 -3 -6 -6z"/>
<path d="M5324 5062 c-18 -13 -64 -78 -64 -92 0 -7 14 6 30 29 17 23 37 44 45
48 8 3 15 9 15 14 0 11 -11 11 -26 1z"/>
<path d="M5406 5045 c8 -37 14 -45 14 -19 0 10 -5 26 -10 34 -8 11 -9 7 -4
-15z"/>
<path d="M5358 4971 c3 -41 -2 -97 -12 -139 -9 -39 -13 -77 -10 -86 8 -21 -21
-105 -68 -199 -22 -44 -34 -76 -28 -72 15 9 57 94 96 196 36 95 43 126 19 95
-19 -26 -19 -12 2 55 18 60 23 193 7 209 -6 6 -8 -13 -6 -59z"/>
<path d="M5427 4955 c3 -28 -2 -88 -11 -136 -21 -113 -19 -132 4 -39 20 79 24
171 10 205 -5 13 -6 2 -3 -30z"/>
<path d="M5294 4945 c4 -11 10 -35 13 -52 3 -18 9 -30 13 -28 10 6 -8 76 -22
90 -8 7 -9 4 -4 -10z"/>
<path d="M5263 4820 c9 -32 8 -46 -7 -77 -15 -31 -15 -35 -2 -24 14 11 16 11
16 -3 0 -10 5 -14 10 -11 6 3 10 20 10 36 0 39 -20 119 -30 119 -4 0 -2 -18 3
-40z"/>
<path d="M5317 4836 c-4 -10 -7 -32 -6 -49 1 -31 1 -31 10 7 10 43 7 72 -4 42z"/>
<path d="M5382 4658 c-6 -23 -9 -44 -7 -46 2 -2 9 15 15 38 6 23 9 44 7 46 -2
3 -9 -14 -15 -38z"/>
<path d="M5276 4673 c-6 -14 -5 -15 5 -6 7 7 10 15 7 18 -3 3 -9 -2 -12 -12z"/>
<path d="M5336 4530 c-22 -56 -19 -65 5 -11 11 24 18 46 15 48 -2 2 -11 -14
-20 -37z"/>
<path d="M5296 4423 c-6 -14 -5 -15 5 -6 7 7 10 15 7 18 -3 3 -9 -2 -12 -12z"/>
<path d="M5132 4145 c0 -16 2 -22 5 -12 2 9 2 23 0 30 -3 6 -5 -1 -5 -18z"/>
<path d="M3911 4082 c-1 -36 20 -95 39 -107 21 -13 21 2 -1 39 -12 21 -25 52
-29 69 l-8 32 -1 -33z"/>
<path d="M5122 4085 c0 -16 2 -22 5 -12 2 9 2 23 0 30 -3 6 -5 -1 -5 -18z"/>
<path d="M4129 4013 c-39 -47 -43 -54 -26 -47 17 6 51 53 44 60 -2 2 -10 -4
-18 -13z"/>
<path d="M5101 3994 c0 -11 3 -14 6 -6 3 7 2 16 -1 19 -3 4 -6 -2 -5 -13z"/>
<path d="M3908 3971 c18 -17 41 -31 52 -31 32 0 23 13 -23 35 -62 30 -65 29
-29 -4z"/>
<path d="M5091 3954 c0 -11 3 -14 6 -6 3 7 2 16 -1 19 -3 4 -6 -2 -5 -13z"/>
<path d="M5070 3882 c0 -45 -118 -245 -211 -358 -33 -39 -59 -74 -59 -79 0
-19 169 200 206 266 46 84 79 167 70 176 -3 4 -6 1 -6 -5z"/>
<path d="M4415 3743 c-43 -23 -124 -43 -175 -43 -25 0 -70 -7 -100 -16 -30 -8
-84 -16 -120 -16 l-65 0 68 -9 c53 -7 73 -6 90 5 12 8 58 17 102 21 115 9 197
24 219 40 29 22 15 35 -19 18z"/>
<path d="M3681 3665 c8 -9 40 -18 70 -21 l54 -5 -60 21 c-72 24 -84 25 -64 5z"/>
<path d="M3836 3652 c-2 -4 11 -6 30 -4 19 2 34 6 34 8 0 8 -59 4 -64 -4z"/>
<path d="M4037 3508 c26 -5 54 -5 75 1 28 8 22 9 -42 9 -70 0 -72 -1 -33 -10z"/>
<path d="M3422 2875 c-47 -50 -112 -147 -112 -166 0 -7 16 14 36 47 19 32 56
80 81 106 26 26 44 50 41 53 -3 3 -24 -15 -46 -40z"/>
<path d="M5001 2644 c0 -11 3 -14 6 -6 3 7 2 16 -1 19 -3 4 -6 -2 -5 -13z"/>
<path d="M5023 2573 c-3 -10 -8 -21 -10 -25 -2 -4 1 -9 6 -12 5 -3 11 8 13 24
5 33 1 39 -9 13z"/>
<path d="M3206 2565 c-3 -8 -1 -15 4 -15 6 0 10 7 10 15 0 8 -2 15 -4 15 -2 0
-6 -7 -10 -15z"/>
<path d="M3230 2569 c0 -5 5 -7 10 -4 6 3 10 8 10 11 0 2 -4 4 -10 4 -5 0 -10
-5 -10 -11z"/>
<path d="M5175 2570 c-16 -7 -17 -9 -3 -9 9 -1 20 4 23 9 7 11 7 11 -20 0z"/>
<path d="M3190 2536 c0 -2 7 -6 15 -10 8 -3 15 -1 15 4 0 6 -7 10 -15 10 -8 0
-15 -2 -15 -4z"/>
<path d="M3135 2520 c-3 -5 -1 -10 4 -10 6 0 11 5 11 10 0 6 -2 10 -4 10 -3 0
-8 -4 -11 -10z"/>
<path d="M3152 2508 c-16 -16 -15 -28 1 -28 7 0 18 9 25 20 10 16 10 20 -1 20
-7 0 -18 -5 -25 -12z"/>
<path d="M3129 2463 c-1 -5 -1 -11 0 -16 1 -4 -5 -22 -12 -40 -8 -17 -19 -54
-26 -82 -6 -27 -14 -59 -16 -70 -46 -184 -56 -269 -60 -517 -2 -103 -7 -192
-10 -198 -3 -5 -2 -10 3 -10 5 0 9 -36 8 -81 0 -44 2 -83 5 -85 4 -2 10 -36
14 -76 4 -40 9 -82 11 -93 1 -11 8 -58 14 -105 11 -91 48 -285 49 -260 1 8 -8
83 -19 165 -29 231 -44 449 -44 687 -1 161 2 220 12 229 6 7 12 20 11 28 0 11
-3 10 -9 -4 -6 -14 -9 -5 -9 35 0 35 2 50 8 41 5 -8 7 5 3 34 -3 31 -1 46 5
42 6 -4 10 5 11 21 0 15 2 41 5 57 3 17 11 64 17 105 7 41 16 80 20 85 5 6 11
27 15 48 4 20 11 40 16 43 5 3 9 9 9 15 0 11 -29 12 -31 2z"/>
<path d="M3212 2440 c0 -19 2 -27 5 -17 2 9 2 25 0 35 -3 9 -5 1 -5 -18z"/>
<path d="M2970 2420 c0 -5 7 -10 16 -10 8 0 12 5 9 10 -3 6 -10 10 -16 10 -5
0 -9 -4 -9 -10z"/>
<path d="M5540 2416 c0 -2 11 -6 25 -8 13 -3 22 -1 19 3 -5 9 -44 13 -44 5z"/>
<path d="M3153 2395 c-3 -9 -3 -18 -1 -21 3 -3 8 4 11 16 6 23 -1 27 -10 5z"/>
<path d="M3181 2384 c0 -11 3 -14 6 -6 3 7 2 16 -1 19 -3 4 -6 -2 -5 -13z"/>
<path d="M2845 2370 c-3 -5 -2 -10 4 -10 5 0 13 5 16 10 3 6 2 10 -4 10 -5 0
-13 -4 -16 -10z"/>
<path d="M5690 2355 c10 -12 10 -15 -1 -15 -11 0 -11 -2 1 -10 8 -5 22 -9 30
-9 10 0 8 3 -5 9 -18 8 -18 9 -2 9 10 1 28 -4 39 -10 12 -7 18 -7 14 -1 -3 6
-1 12 6 14 7 3 5 7 -6 11 -11 4 -15 3 -10 -4 8 -13 -35 -2 -50 12 -16 15 -29
10 -16 -6z"/>
<path d="M5515 2350 c3 -5 10 -10 16 -10 5 0 9 5 9 10 0 6 -7 10 -16 10 -8 0
-12 -4 -9 -10z"/>
<path d="M2798 2343 c-30 -8 -20 -20 12 -15 16 2 27 8 24 13 -5 9 -8 10 -36 2z"/>
<path d="M3211 2340 c0 -8 4 -24 9 -35 5 -13 9 -14 9 -5 0 8 -4 24 -9 35 -5
13 -9 14 -9 5z"/>
<path d="M3160 2330 c0 -5 5 -10 11 -10 5 0 7 5 4 10 -3 6 -8 10 -11 10 -2 0
-4 -4 -4 -10z"/>
<path d="M2725 2320 c-7 -12 2 -12 30 0 19 8 19 9 -2 9 -12 1 -25 -3 -28 -9z"/>
<path d="M2810 2309 c-11 -6 -12 -11 -4 -16 7 -5 15 -39 18 -78 4 -38 9 -90
11 -115 3 -27 0 -48 -8 -53 -9 -6 -9 -10 0 -13 11 -5 16 -166 15 -499 0 -122
1 -126 9 -55 18 162 1 811 -22 834 -2 3 -11 1 -19 -5z"/>
<path d="M3204 2261 c1 -16 4 -27 9 -24 10 6 9 41 -2 47 -4 3 -8 -8 -7 -23z"/>
<path d="M5950 2250 c-8 -5 -10 -10 -5 -10 6 0 17 5 25 10 8 5 11 10 5 10 -5
0 -17 -5 -25 -10z"/>
<path d="M2530 2246 c0 -2 7 -7 16 -10 8 -3 12 -2 9 4 -6 10 -25 14 -25 6z"/>
<path d="M2505 2220 c-3 -5 -1 -10 4 -10 6 0 11 5 11 10 0 6 -2 10 -4 10 -3 0
-8 -4 -11 -10z"/>
<path d="M5968 2205 c13 -9 26 -14 29 -11 8 8 3 12 -27 21 l-25 7 23 -17z"/>
<path d="M3102 2180 c0 -14 2 -19 5 -12 2 6 2 18 0 25 -3 6 -5 1 -5 -13z"/>
<path d="M6258 2193 c7 -3 16 -2 19 1 4 3 -2 6 -13 5 -11 0 -14 -3 -6 -6z"/>
<path d="M2378 2183 c7 -3 16 -2 19 1 4 3 -2 6 -13 5 -11 0 -14 -3 -6 -6z"/>
<path d="M6180 2180 c0 -5 5 -10 10 -10 6 0 10 5 10 10 0 6 -4 10 -10 10 -5 0
-10 -4 -10 -10z"/>
<path d="M6291 2174 c0 -11 3 -14 6 -6 3 7 2 16 -1 19 -3 4 -6 -2 -5 -13z"/>
<path d="M2210 2122 c-8 -3 -19 -11 -23 -19 -12 -19 -10 -239 3 -481 13 -234
15 -261 25 -285 4 -9 2 -30 -5 -46 -6 -16 -10 -38 -7 -48 3 -13 5 -10 6 8 2
52 16 38 33 -33 21 -85 23 -111 8 -88 -6 9 -10 10 -10 3 0 -7 6 -16 13 -20 8
-4 19 -30 27 -58 7 -27 24 -90 37 -140 19 -68 22 -94 14 -107 -6 -10 -11 -23
-10 -30 0 -7 5 -2 10 12 11 25 11 25 26 -15 9 -22 26 -67 39 -101 13 -33 24
-67 23 -75 -1 -8 -5 -3 -9 11 -7 22 -8 20 -7 -12 1 -20 6 -34 11 -30 5 3 7 -2
3 -11 -3 -9 -2 -19 4 -22 5 -4 7 -11 3 -16 -3 -5 1 -20 9 -32 16 -25 85 -318
89 -380 3 -34 21 -56 32 -39 5 9 -44 262 -68 352 -17 64 -15 74 7 28 8 -18 32
-68 52 -111 20 -44 39 -77 42 -74 6 7 -35 117 -94 252 -24 55 -45 106 -46 115
-2 8 -8 24 -15 36 -6 11 -13 32 -16 47 -2 14 -9 34 -15 45 -12 22 -65 197 -87
287 -9 33 -22 83 -29 110 -43 154 -72 404 -81 705 -7 223 -7 226 14 235 24 11
16 35 -8 27z"/>
<path d="M3091 2114 c0 -11 3 -14 6 -6 3 7 2 16 -1 19 -3 4 -6 -2 -5 -13z"/>
<path d="M2812 2100 c0 -14 2 -19 5 -12 2 6 2 18 0 25 -3 6 -5 1 -5 -13z"/>
<path d="M6405 2100 c-3 -6 1 -7 9 -4 18 7 21 14 7 14 -6 0 -13 -4 -16 -10z"/>
<path d="M6554 2046 c41 -40 57 -63 53 -76 -4 -14 -1 -17 12 -13 13 5 13 3 -3
-15 -11 -12 -14 -22 -8 -22 6 0 14 5 17 10 10 16 25 1 19 -18 -5 -14 -4 -15 5
-2 6 8 11 11 11 5 0 -5 20 -41 45 -80 30 -46 41 -73 35 -79 -6 -6 -10 -15 -10
-20 0 -6 4 -4 10 4 5 8 12 11 16 7 4 -3 1 -13 -6 -22 -8 -10 -9 -15 -1 -15 6
0 11 5 11 11 0 19 34 -32 63 -93 15 -32 24 -66 21 -75 -5 -14 -4 -15 4 -4 7
10 13 5 22 -23 7 -21 14 -35 16 -33 10 10 -40 121 -106 236 -122 213 -210 334
-265 363 -11 6 6 -14 39 -46z"/>
<path d="M4563 2066 c7 -11 18 -26 25 -34 10 -11 12 -11 12 2 0 9 -4 16 -10
16 -5 0 -10 8 -10 18 0 10 -6 19 -14 19 -11 0 -12 -4 -3 -21z"/>
<path d="M6237 2065 c3 -8 9 -12 14 -9 12 7 11 11 -5 17 -10 4 -13 1 -9 -8z"/>
<path d="M6499 2068 c7 -9 11 -21 8 -25 -3 -4 2 -14 10 -22 13 -12 14 -11 8
10 -4 13 -14 31 -23 39 -14 13 -15 13 -3 -2z"/>
<path d="M4443 2029 c-24 -10 -43 -21 -43 -24 0 -3 9 -1 21 6 12 6 30 9 40 6
10 -3 17 -1 14 3 -3 5 1 10 7 13 7 2 11 7 8 9 -3 3 -24 -3 -47 -13z"/>
<path d="M6556 2020 c5 -8 7 -24 6 -35 -2 -19 -2 -19 9 -1 9 14 8 21 -6 35
-14 12 -16 12 -9 1z"/>
<path d="M4602 1990 c0 -14 2 -19 5 -12 2 6 2 18 0 25 -3 6 -5 1 -5 -13z"/>
<path d="M3756 1984 c-5 -14 -4 -15 9 -4 17 14 19 20 6 20 -5 0 -12 -7 -15
-16z"/>
<path d="M6580 1980 c0 -5 5 -10 10 -10 6 0 10 5 10 10 0 6 -4 10 -10 10 -5 0
-10 -4 -10 -10z"/>
<path d="M1986 1947 c3 -10 9 -15 12 -12 3 3 0 11 -7 18 -10 9 -11 8 -5 -6z"/>
<path d="M3701 1938 l-14 -23 22 20 c22 19 23 19 37 0 8 -10 14 -14 14 -9 0
13 -21 34 -35 34 -5 0 -16 -10 -24 -22z"/>
<path d="M2822 1885 c0 -16 2 -22 5 -12 2 9 2 23 0 30 -3 6 -5 -1 -5 -18z"/>
<path d="M3625 1865 c-16 -14 -22 -22 -12 -19 9 3 17 1 17 -5 0 -6 7 -8 16 -4
13 5 13 7 2 14 -11 7 -10 11 2 19 11 7 17 5 22 -8 7 -15 8 -14 5 2 -3 29 -18
29 -52 1z"/>
<path d="M6426 1803 c-20 -41 -133 -378 -172 -513 -14 -47 -37 -123 -51 -170
-29 -100 -59 -227 -84 -360 -20 -110 -19 -116 -23 193 -2 131 -6 240 -9 243
-15 15 -19 -115 -13 -406 3 -176 4 -320 2 -320 -5 0 -32 120 -61 270 -28 143
-76 332 -82 326 -3 -3 2 -40 11 -83 21 -103 34 -170 41 -215 2 -21 9 -57 14
-80 6 -23 8 -45 5 -49 -2 -4 1 -9 6 -11 6 -2 12 -21 13 -43 1 -22 6 -43 12
-47 6 -5 5 -12 -3 -20 -16 -16 -15 -48 2 -48 23 0 45 -120 48 -258 1 -68 6
-126 10 -128 3 -2 9 22 13 53 6 54 18 106 32 143 4 8 5 18 5 22 -1 5 2 8 6 8
4 0 8 8 9 18 0 9 20 67 43 127 75 192 159 449 158 480 0 19 -2 23 -5 10 -6
-29 -82 -243 -103 -290 -10 -22 -24 -54 -31 -72 -7 -17 -17 -29 -23 -26 -5 3
-6 1 -2 -6 4 -6 4 -21 0 -34 -8 -21 -8 -21 -16 8 -6 23 -6 20 -3 -12 3 -24 2
-43 -3 -43 -4 0 -9 -12 -10 -27 -1 -15 -5 -29 -10 -32 -4 -3 -7 -10 -7 -16 -1
-26 -18 -75 -25 -75 -5 0 -9 12 -9 28 0 15 -2 43 -5 62 -6 46 12 232 25 245 6
5 9 4 9 -5 0 -7 2 -11 5 -8 3 2 1 18 -5 34 -7 23 -1 63 30 194 48 199 47 196
56 223 4 12 8 29 9 37 3 23 35 129 56 185 10 28 22 65 25 83 4 17 10 32 15 32
5 0 8 3 7 8 -1 4 2 24 7 45 5 29 10 35 17 25 7 -9 8 -7 4 8 -4 11 10 72 31
135 20 63 38 123 40 134 2 11 8 24 13 29 12 12 13 26 2 26 -5 0 -16 -17 -26
-37z m-389 -1315 c-3 -8 -6 -5 -6 6 -1 11 2 17 5 13 3 -3 4 -12 1 -19z"/>
<path d="M6650 1790 c0 -5 5 -10 11 -10 5 0 7 5 4 10 -3 6 -8 10 -11 10 -2 0
-4 -4 -4 -10z"/>
<path d="M1830 1770 c0 -5 5 -10 10 -10 6 0 10 5 10 10 0 6 -4 10 -10 10 -5 0
-10 -4 -10 -10z"/>
<path d="M2172 1680 c0 -14 2 -19 5 -12 2 6 2 18 0 25 -3 6 -5 1 -5 -13z"/>
<path d="M4795 1690 c-3 -6 1 -7 9 -4 18 7 21 14 7 14 -6 0 -13 -4 -16 -10z"/>
<path d="M4938 1693 c7 -3 16 -2 19 1 4 3 -2 6 -13 5 -11 0 -14 -3 -6 -6z"/>
<path d="M4776 1645 c-9 -26 -7 -32 5 -12 6 10 9 21 6 23 -2 3 -7 -2 -11 -11z"/>
<path d="M6793 1614 c-9 -9 -10 -15 -2 -20 14 -8 30 8 21 22 -5 9 -10 8 -19
-2z"/>
<path d="M4788 1603 c7 -3 16 -2 19 1 4 3 -2 6 -13 5 -11 0 -14 -3 -6 -6z"/>
<path d="M1906 1569 c-20 -59 -51 -619 -35 -619 3 0 7 -86 8 -192 1 -106 4
-194 6 -197 14 -13 16 27 13 250 -4 343 -1 580 10 679 9 81 8 109 -2 79z"/>
<path d="M6381 1564 c0 -11 3 -14 6 -6 3 7 2 16 -1 19 -3 4 -6 -2 -5 -13z"/>
<path d="M6817 1573 c-4 -3 -7 -11 -7 -17 0 -6 5 -5 12 2 6 6 9 14 7 17 -3 3
-9 2 -12 -2z"/>
<path d="M4680 1480 c0 -5 5 -10 11 -10 5 0 7 5 4 10 -3 6 -8 10 -11 10 -2 0
-4 -4 -4 -10z"/>
<path d="M6890 1478 c0 -4 16 -56 37 -115 33 -99 40 -124 42 -161 1 -7 5 -11
10 -8 5 3 16 -22 26 -57 9 -34 23 -81 31 -105 8 -24 12 -48 9 -53 -4 -5 -1 -9
5 -9 6 0 9 -4 6 -9 -3 -4 3 -26 13 -47 10 -22 22 -58 26 -82 4 -23 15 -66 26
-94 20 -56 25 -82 10 -59 -7 10 -9 7 -8 -12 2 -28 12 -36 20 -14 3 7 9 2 15
-13 5 -14 6 -27 1 -30 -4 -3 -4 -11 0 -19 19 -30 19 21 0 76 -11 32 -36 114
-55 183 -66 234 -213 665 -214 628z"/>
<path d="M2167 1429 c6 -23 9 -24 16 -5 3 8 0 17 -7 19 -10 4 -12 -1 -9 -14z"/>
<path d="M4650 1430 c0 -5 5 -10 10 -10 6 0 10 5 10 10 0 6 -4 10 -10 10 -5 0
-10 -4 -10 -10z"/>
<path d="M6891 1410 c0 -8 4 -22 9 -30 12 -18 12 -2 0 25 -6 13 -9 15 -9 5z"/>
<path d="M2832 1380 c0 -14 2 -19 5 -12 2 6 2 18 0 25 -3 6 -5 1 -5 -13z"/>
<path d="M4631 1384 c0 -11 3 -14 6 -6 3 7 2 16 -1 19 -3 4 -6 -2 -5 -13z"/>
<path d="M2186 1365 c-9 -26 -7 -32 5 -12 6 10 9 21 6 23 -2 3 -7 -2 -11 -11z"/>
<path d="M3001 1344 c0 -11 3 -14 6 -6 3 7 2 16 -1 19 -3 4 -6 -2 -5 -13z"/>
<path d="M4650 1349 c0 -5 5 -7 10 -4 6 3 10 8 10 11 0 2 -4 4 -10 4 -5 0 -10
-5 -10 -11z"/>
<path d="M6910 1331 c0 -5 5 -13 10 -16 6 -3 10 -2 10 4 0 5 -4 13 -10 16 -5
3 -10 2 -10 -4z"/>
<path d="M2192 1310 c0 -14 2 -19 5 -12 2 6 2 18 0 25 -3 6 -5 1 -5 -13z"/>
<path d="M4521 1313 c0 -12 -4 -30 -7 -40 -5 -17 -5 -17 6 0 6 10 9 28 7 40
-4 22 -4 22 -6 0z"/>
<path d="M6301 1294 c0 -11 3 -14 6 -6 3 7 2 16 -1 19 -3 4 -6 -2 -5 -13z"/>
<path d="M1606 1254 c-4 -14 -5 -28 -3 -31 3 -2 8 8 11 23 4 14 5 28 3 31 -3
2 -8 -8 -11 -23z"/>
<path d="M1853 1240 c0 -25 2 -35 4 -22 2 12 2 32 0 45 -2 12 -4 2 -4 -23z"/>
<path d="M6272 1195 c0 -16 2 -22 5 -12 2 9 2 23 0 30 -3 6 -5 -1 -5 -18z"/>
<path d="M1581 1178 c-12 -37 -70 -271 -126 -507 -20 -84 -34 -156 -31 -159 3
-3 6 -3 7 -1 10 54 29 109 48 139 10 14 11 21 4 17 -7 -5 -13 -5 -13 -2 0 10
21 98 27 115 3 8 7 20 8 25 13 59 51 220 70 300 23 100 26 136 6 73z"/>
<path d="M1853 1155 c0 -22 2 -30 4 -17 2 12 2 30 0 40 -3 9 -5 -1 -4 -23z"/>
<path d="M6291 1153 c0 -6 -4 -20 -7 -30 -5 -14 -4 -15 5 -7 7 7 11 20 8 30
-3 11 -5 14 -6 7z"/>
<path d="M6985 1119 c-4 -6 -5 -12 -2 -15 2 -3 7 2 10 11 7 17 1 20 -8 4z"/>
<path d="M2244 1063 c1 -19 5 -28 10 -23 6 6 5 18 -1 32 -10 21 -10 21 -9 -9z"/>
<path d="M4516 1044 c-4 -14 -5 -28 -3 -31 3 -2 8 8 11 23 4 14 5 28 3 31 -3
2 -8 -8 -11 -23z"/>
<path d="M6971 1059 c0 -9 6 -22 14 -29 12 -10 15 -9 15 4 0 10 -4 15 -9 11
-5 -3 -12 3 -14 12 -4 15 -5 15 -6 2z"/>
<path d="M2271 1024 c0 -11 3 -14 6 -6 3 7 2 16 -1 19 -3 4 -6 -2 -5 -13z"/>
<path d="M4493 985 c-3 -9 -3 -18 -1 -21 3 -3 8 4 11 16 6 23 -1 27 -10 5z"/>
<path d="M6211 984 c0 -11 3 -14 6 -6 3 7 2 16 -1 19 -3 4 -6 -2 -5 -13z"/>
<path d="M1842 940 c0 -14 2 -19 5 -12 2 6 2 18 0 25 -3 6 -5 1 -5 -13z"/>
<path d="M6200 946 c0 -8 4 -17 9 -20 5 -4 7 3 4 14 -6 23 -13 26 -13 6z"/>
<path d="M1862 910 c0 -14 2 -19 5 -12 2 6 2 18 0 25 -3 6 -5 1 -5 -13z"/>
<path d="M2242 905 c0 -16 2 -22 5 -12 2 9 2 23 0 30 -3 6 -5 -1 -5 -18z"/>
<path d="M2280 925 c0 -5 5 -17 10 -25 5 -8 10 -10 10 -5 0 6 -5 17 -10 25 -5
8 -10 11 -10 5z"/>
<path d="M7042 895 c0 -16 2 -22 5 -12 2 9 2 23 0 30 -3 6 -5 -1 -5 -18z"/>
<path d="M7071 834 c0 -11 3 -14 6 -6 3 7 2 16 -1 19 -3 4 -6 -2 -5 -13z"/>
<path d="M1851 824 c0 -11 3 -14 6 -6 3 7 2 16 -1 19 -3 4 -6 -2 -5 -13z"/>
<path d="M6382 820 c0 -14 2 -19 5 -12 2 6 2 18 0 25 -3 6 -5 1 -5 -13z"/>
<path d="M3111 794 c0 -11 3 -14 6 -6 3 7 2 16 -1 19 -3 4 -6 -2 -5 -13z"/>
<path d="M7082 780 c0 -14 2 -19 5 -12 2 6 2 18 0 25 -3 6 -5 1 -5 -13z"/>
<path d="M7051 774 c0 -11 3 -14 6 -6 3 7 2 16 -1 19 -3 4 -6 -2 -5 -13z"/>
<path d="M2350 735 c0 -5 5 -17 10 -25 5 -8 10 -10 10 -5 0 6 -5 17 -10 25 -5
8 -10 11 -10 5z"/>
<path d="M2326 705 c-3 -8 -1 -15 4 -15 6 0 10 7 10 15 0 8 -2 15 -4 15 -2 0
-6 -7 -10 -15z"/>
<path d="M2356 673 c-6 -14 -5 -15 5 -6 7 7 10 15 7 18 -3 3 -9 -2 -12 -12z"/>
<path d="M6317 684 c-4 -4 -7 -14 -7 -23 0 -11 3 -12 11 -4 6 6 10 16 7 23 -2
6 -7 8 -11 4z"/>
<path d="M6345 639 c-4 -6 -5 -12 -2 -15 2 -3 7 2 10 11 7 17 1 20 -8 4z"/>
<path d="M6166 614 c-4 -14 -5 -28 -3 -31 3 -2 8 8 11 23 4 14 5 28 3 31 -3 2
-8 -8 -11 -23z"/>
<path d="M6196 609 c-8 -42 0 -50 9 -9 4 17 5 34 2 36 -2 3 -7 -10 -11 -27z"/>
<path d="M6126 585 c-3 -8 -1 -15 4 -15 6 0 10 7 10 15 0 8 -2 15 -4 15 -2 0
-6 -7 -10 -15z"/>
<path d="M7130 590 c1 -8 7 -24 15 -34 19 -25 19 -16 0 20 -8 16 -15 22 -15
14z"/>
<path d="M1460 575 c0 -5 5 -17 10 -25 5 -8 10 -10 10 -5 0 6 -5 17 -10 25 -5
8 -10 11 -10 5z"/>
<path d="M7180 552 c0 -4 4 -12 10 -18 5 -5 12 -25 14 -44 3 -19 10 -46 16
-60 9 -21 10 -18 5 20 -7 58 -24 110 -36 110 -5 0 -9 -4 -9 -8z"/>
<path d="M6002 525 c0 -16 2 -22 5 -12 2 9 2 23 0 30 -3 6 -5 -1 -5 -18z"/>
<path d="M7121 534 c0 -11 3 -14 6 -6 3 7 2 16 -1 19 -3 4 -6 -2 -5 -13z"/>
<path d="M1876 524 c-7 -18 0 -34 15 -34 5 0 9 11 9 25 0 28 -15 34 -24 9z"/>
<path d="M2401 514 c0 -11 3 -14 6 -6 3 7 2 16 -1 19 -3 4 -6 -2 -5 -13z"/>
<path d="M6132 505 c0 -16 2 -22 5 -12 2 9 2 23 0 30 -3 6 -5 -1 -5 -18z"/>
<path d="M7160 510 c0 -5 5 -10 11 -10 5 0 7 5 4 10 -3 6 -8 10 -11 10 -2 0
-4 -4 -4 -10z"/>
<path d="M1400 445 c-7 -30 -11 -57 -8 -60 3 -3 10 20 17 51 7 30 11 57 9 60
-3 2 -11 -21 -18 -51z"/>
<path d="M7135 490 c-3 -5 -1 -10 4 -10 6 0 11 5 11 10 0 6 -2 10 -4 10 -3 0
-8 -4 -11 -10z"/>
<path d="M1879 463 c-6 -68 -5 -103 2 -103 5 0 9 12 10 28 1 15 2 42 4 60 1
17 -1 32 -6 32 -5 0 -10 -8 -10 -17z"/>
<path d="M6005 421 c-3 -5 -1 -12 5 -16 5 -3 10 1 10 9 0 18 -6 21 -15 7z"/>
<path d="M6200 419 c0 -5 5 -7 10 -4 6 3 10 8 10 11 0 2 -4 4 -10 4 -5 0 -10
-5 -10 -11z"/>
<path d="M1420 411 c0 -6 4 -13 10 -16 6 -3 7 1 4 9 -7 18 -14 21 -14 7z"/>
<path d="M6042 380 c0 -14 2 -19 5 -12 2 6 2 18 0 25 -3 6 -5 1 -5 -13z"/>
<path d="M6121 384 c0 -11 3 -14 6 -6 3 7 2 16 -1 19 -3 4 -6 -2 -5 -13z"/>
<path d="M7230 383 c0 -9 -8 -26 -17 -37 -14 -16 -12 -16 9 3 15 13 24 29 21
37 -7 19 -13 18 -13 -3z"/>
<path d="M2402 345 c0 -16 2 -22 5 -12 2 9 2 23 0 30 -3 6 -5 -1 -5 -18z"/>
<path d="M2422 340 c0 -14 2 -19 5 -12 2 6 2 18 0 25 -3 6 -5 1 -5 -13z"/>
<path d="M6021 334 c0 -11 3 -14 6 -6 3 7 2 16 -1 19 -3 4 -6 -2 -5 -13z"/>
<path d="M7137 308 c2 -5 10 -8 18 -8 8 0 16 3 18 8 3 4 -5 7 -18 7 -13 0 -21
-3 -18 -7z"/>
<path d="M6140 235 c0 -19 4 -35 8 -35 4 0 6 16 4 35 -2 19 -6 35 -8 35 -2 0
-4 -16 -4 -35z"/>
<path d="M2955 218 c-137 -6 -229 -13 -244 -21 -22 -11 -24 -19 -25 -79 -1
-41 3 -69 10 -72 10 -4 78 -7 552 -22 179 -5 182 -5 182 15 0 20 5 21 105 21
97 0 105 -2 105 -19 0 -17 10 -20 93 -25 118 -8 297 -11 412 -8 l90 2 -3 74
c-3 55 -8 78 -21 90 -28 25 -137 35 -476 41 -176 3 -374 7 -440 8 -66 2 -219
-1 -340 -5z"/>
<path d="M6120 159 c0 -11 4 -18 10 -14 5 3 7 12 3 20 -7 21 -13 19 -13 -6z"/>
<path d="M2491 144 c0 -11 3 -14 6 -6 3 7 2 16 -1 19 -3 4 -6 -2 -5 -13z"/>
<path d="M6116 115 c-9 -26 -7 -32 5 -12 6 10 9 21 6 23 -2 3 -7 -2 -11 -11z"/>
<path d="M2443 63 c15 -2 37 -2 50 0 12 2 0 4 -28 4 -27 0 -38 -2 -22 -4z"/>
</g>
</svg>
